<?xml version="1.0" encoding="utf-8"?>
<!-- Generator: Adobe Illustrator 24.3.0, SVG Export Plug-In . SVG Version: 6.00 Build 0)  -->
<svg version="1.1" id="Layer_1" xmlns="http://www.w3.org/2000/svg" xmlns:xlink="http://www.w3.org/1999/xlink" x="0px" y="0px"
	 viewBox="0 0 30.2 831" style="enable-background:new 0 0 30.2 831;" xml:space="preserve">
<style type="text/css">
	.st0{fill:none;stroke:#000000;stroke-width:3;stroke-miterlimit:10;}
</style>
<g>
	<g>
		<line class="st0" x1="-1563.8" y1="-64.5" x2="-740" y2="-64.5"/>
		<g>
			<path d="M-1543.3-50.1c0.4-0.7,0.2-1.6-0.5-2.1l-19.4-12.3l19.4-12.3c0.7-0.4,0.9-1.4,0.5-2.1c-0.4-0.7-1.4-0.9-2.1-0.5
				l-21.3,13.6c-0.4,0.3-0.7,0.8-0.7,1.3s0.3,1,0.7,1.3l21.3,13.6c0.2,0.2,0.5,0.2,0.8,0.2C-1544.1-49.4-1543.6-49.7-1543.3-50.1z"
				/>
		</g>
		<g>
			<path d="M-760.5-50.1c-0.4-0.7-0.2-1.6,0.5-2.1l19.4-12.3l-19.4-12.3c-0.7-0.4-0.9-1.4-0.5-2.1c0.4-0.7,1.4-0.9,2.1-0.5
				l21.3,13.6c0.4,0.3,0.7,0.8,0.7,1.3s-0.3,1-0.7,1.3l-21.3,13.6c-0.2,0.2-0.5,0.2-0.8,0.2C-759.7-49.4-760.2-49.7-760.5-50.1z"/>
		</g>
	</g>
</g>
<g>
	<g>
		<line class="st0" x1="15.1" y1="3.6" x2="15.1" y2="827.4"/>
		<g>
			<path d="M0.7,24.1c0.7,0.4,1.6,0.2,2.1-0.5L15.1,4.3l12.3,19.4c0.4,0.7,1.4,0.9,2.1,0.5c0.7-0.4,0.9-1.4,0.5-2.1L16.4,0.7
				C16.1,0.3,15.6,0,15.1,0s-1,0.3-1.3,0.7L0.2,22C0.1,22.3,0,22.6,0,22.8C0,23.3,0.2,23.8,0.7,24.1z"/>
		</g>
		<g>
			<path d="M0.7,806.9c0.7-0.4,1.6-0.2,2.1,0.5l12.3,19.4l12.3-19.4c0.4-0.7,1.4-0.9,2.1-0.5s0.9,1.4,0.5,2.1l-13.6,21.3
				c-0.3,0.4-0.8,0.7-1.3,0.7s-1-0.3-1.3-0.7L0.2,809c-0.2-0.2-0.2-0.5-0.2-0.8C0,807.7,0.2,807.2,0.7,806.9z"/>
		</g>
	</g>
</g>
</svg>
