<?xml version="1.0" encoding="utf-8"?>
<!-- Generator: Adobe Illustrator 24.3.0, SVG Export Plug-In . SVG Version: 6.00 Build 0)  -->
<svg version="1.1" id="Layer_1" xmlns="http://www.w3.org/2000/svg" xmlns:xlink="http://www.w3.org/1999/xlink" x="0px" y="0px"
	 viewBox="0 0 831 30.2" style="enable-background:new 0 0 831 30.2;" xml:space="preserve">
<style type="text/css">
	.st0{fill:none;stroke:#000000;stroke-width:3;stroke-miterlimit:10;}
</style>
<g>
	<g>
		<line class="st0" x1="3.6" y1="15.1" x2="827.4" y2="15.1"/>
		<g>
			<path d="M24.1,29.5c0.4-0.7,0.2-1.6-0.5-2.1L4.3,15.1L23.6,2.8c0.7-0.4,0.9-1.4,0.5-2.1C23.7,0,22.7-0.2,22,0.2L0.7,13.8
				C0.3,14.1,0,14.6,0,15.1s0.3,1,0.7,1.3L22,30c0.2,0.2,0.5,0.2,0.8,0.2C23.3,30.2,23.8,29.9,24.1,29.5z"/>
		</g>
		<g>
			<path d="M806.9,29.5c-0.4-0.7-0.2-1.6,0.5-2.1l19.4-12.3L807.4,2.8c-0.7-0.4-0.9-1.4-0.5-2.1c0.4-0.7,1.4-0.9,2.1-0.5l21.3,13.6
				c0.4,0.3,0.7,0.8,0.7,1.3s-0.3,1-0.7,1.3L809,30c-0.2,0.2-0.5,0.2-0.8,0.2C807.7,30.2,807.2,29.9,806.9,29.5z"/>
		</g>
	</g>
</g>
<g>
	<g>
		<line class="st0" x1="1582.5" y1="83.2" x2="1582.5" y2="907"/>
		<g>
			<path d="M1568.1,103.7c0.7,0.4,1.6,0.2,2.1-0.5l12.3-19.4l12.3,19.4c0.4,0.7,1.4,0.9,2.1,0.5c0.7-0.4,0.9-1.4,0.5-2.1l-13.6-21.3
				c-0.3-0.4-0.8-0.7-1.3-0.7s-1,0.3-1.3,0.7l-13.6,21.3c-0.2,0.2-0.2,0.5-0.2,0.8C1567.4,102.9,1567.7,103.4,1568.1,103.7z"/>
		</g>
		<g>
			<path d="M1568.1,886.5c0.7-0.4,1.6-0.2,2.1,0.5l12.3,19.4l12.3-19.4c0.4-0.7,1.4-0.9,2.1-0.5s0.9,1.4,0.5,2.1l-13.6,21.3
				c-0.3,0.4-0.8,0.7-1.3,0.7s-1-0.3-1.3-0.7l-13.6-21.3c-0.2-0.2-0.2-0.5-0.2-0.8C1567.4,887.3,1567.7,886.8,1568.1,886.5z"/>
		</g>
	</g>
</g>
</svg>
