<svg xmlns="http://www.w3.org/2000/svg" width="29" height="28" viewBox="0 0 29 28">
  <g id="shopping-cart-empty-side-view" transform="translate(0 0)" opacity="0.559">
    <path id="Shape" d="M18.455,25.136a2.885,2.885,0,0,1,.717-1.909H13.085a2.885,2.885,0,0,1,.717,1.909,2.792,2.792,0,1,1-5.583,0,2.889,2.889,0,0,1,.716-1.909H8.22a.769.769,0,0,1-.634-.338.81.81,0,0,1-.1-.726L8.512,19.25H8.064a.938.938,0,0,1-.915-.782L4.451,3.4.59,1.843A.962.962,0,0,1,.065.606.924.924,0,0,1,1.271.066L5.613,1.816a.95.95,0,0,1,.575.716L8.84,17.341H23.514l3.3-10.555L10.04,6.044a.955.955,0,0,1,.08-1.907l17.989.8a.924.924,0,0,1,.723.408.971.971,0,0,1,.123.837L25.079,18.587a.933.933,0,0,1-.886.663H10.16l-.837,2.386h14.87a.8.8,0,0,1,0,1.591h-.872a2.889,2.889,0,0,1,.716,1.909,2.792,2.792,0,1,1-5.583,0Z"/>
  </g>
</svg>
