<svg width="35" height="35" viewBox="0 0 35 35" fill="none" xmlns="http://www.w3.org/2000/svg">
<path opacity="0.5" d="M17.5 2.91666C14.6157 2.91666 11.7961 3.77195 9.39793 5.37439C6.99971 6.97683 5.13053 9.25443 4.02675 11.9192C2.92298 14.5839 2.63418 17.5162 3.19688 20.3451C3.75958 23.1739 5.14851 25.7725 7.18802 27.812C9.22754 29.8515 11.826 31.2404 14.6549 31.8031C17.4838 32.3658 20.416 32.077 23.0808 30.9732C25.7456 29.8695 28.0232 28.0003 29.6256 25.6021C31.228 23.2038 32.0833 20.3843 32.0833 17.5C32.0833 15.5849 31.7061 13.6885 30.9732 11.9192C30.2404 10.1499 29.1662 8.5422 27.812 7.18802C26.4578 5.83383 24.8501 4.75963 23.0808 4.02675C21.3115 3.29387 19.4151 2.91666 17.5 2.91666V2.91666ZM17.5 29.1667C15.1925 29.1667 12.9369 28.4824 11.0183 27.2005C9.09977 25.9185 7.60442 24.0964 6.7214 21.9646C5.83838 19.8328 5.60734 17.487 6.0575 15.2239C6.50766 12.9608 7.6188 10.882 9.25042 9.25041C10.882 7.6188 12.9608 6.50766 15.2239 6.0575C17.4871 5.60733 19.8328 5.83837 21.9646 6.7214C24.0964 7.60442 25.9185 9.09976 27.2005 11.0183C28.4824 12.9369 29.1667 15.1925 29.1667 17.5C29.1667 20.5942 27.9375 23.5616 25.7496 25.7496C23.5617 27.9375 20.5942 29.1667 17.5 29.1667V29.1667Z" fill="#67A7F0"/>
<path d="M29.1667 17.5H32.0833C32.0833 15.5849 31.7061 13.6885 30.9732 11.9192C30.2404 10.1499 29.1662 8.5422 27.812 7.18802C26.4578 5.83383 24.8501 4.75963 23.0808 4.02675C21.3115 3.29387 19.4151 2.91666 17.5 2.91666V5.83332C20.5942 5.83332 23.5617 7.06249 25.7496 9.25041C27.9375 11.4383 29.1667 14.4058 29.1667 17.5Z" fill="#67A7F0"/>
</svg>
