<svg xmlns="http://www.w3.org/2000/svg" width="29" height="29" viewBox="0 0 29 29">
  <g id="information" opacity="0.559">
    <circle id="Oval" cx="1.5" cy="1.5" r="1.5" transform="translate(13 20)"/>
    <path id="Shape" d="M14.5,29A14.5,14.5,0,0,1,4.245,4.245a14.5,14.5,0,0,1,20.51,20.511A14.407,14.407,0,0,1,14.5,29Zm0-26.735A12.235,12.235,0,1,0,26.735,14.5,12.248,12.248,0,0,0,14.5,2.265Z"/>
    <path id="Path" d="M4.5,0A4.541,4.541,0,0,0,0,4.571,1.134,1.134,0,0,0,1.125,5.714,1.134,1.134,0,0,0,2.25,4.571,2.25,2.25,0,1,1,4.5,6.857,1.134,1.134,0,0,0,3.375,8v2.857a1.125,1.125,0,1,0,2.25,0V9A4.567,4.567,0,0,0,9,4.571,4.541,4.541,0,0,0,4.5,0Z" transform="translate(10 7)"/>
  </g>
</svg>
