<svg width="37" height="37" viewBox="0 0 37 37" fill="none" xmlns="http://www.w3.org/2000/svg">
<path d="M22.6933 13.5513L16.0796 20.1804L13.5358 17.6367C13.3976 17.4753 13.2276 17.3442 13.0363 17.2517C12.845 17.1591 12.6367 17.1071 12.4244 17.0989C12.2121 17.0907 12.0003 17.1265 11.8025 17.204C11.6047 17.2815 11.425 17.3991 11.2747 17.5493C11.1245 17.6996 11.0069 17.8793 10.9294 18.0771C10.8519 18.2749 10.8162 18.4866 10.8244 18.699C10.8326 18.9113 10.8846 19.1196 10.9771 19.3109C11.0696 19.5021 11.2007 19.6722 11.3621 19.8104L14.985 23.4488C15.1291 23.5916 15.2999 23.7047 15.4877 23.7814C15.6756 23.8581 15.8767 23.897 16.0796 23.8958C16.484 23.8941 16.8716 23.7336 17.1588 23.4488L24.8671 15.7404C25.0116 15.5971 25.1263 15.4266 25.2045 15.2387C25.2828 15.0509 25.3231 14.8494 25.3231 14.6458C25.3231 14.4423 25.2828 14.2408 25.2045 14.053C25.1263 13.8651 25.0116 13.6946 24.8671 13.5513C24.5782 13.2641 24.1875 13.103 23.7802 13.103C23.3729 13.103 22.9822 13.2641 22.6933 13.5513ZM18.5 3.08334C15.4509 3.08334 12.4702 3.98752 9.93496 5.68152C7.3997 7.37553 5.42371 9.78328 4.25686 12.6003C3.09001 15.4173 2.78471 18.5171 3.37956 21.5077C3.97442 24.4982 5.44271 27.2452 7.59877 29.4012C9.75483 31.5573 12.5018 33.0256 15.4924 33.6205C18.4829 34.2153 21.5827 33.91 24.3997 32.7432C27.2167 31.5763 29.6245 29.6003 31.3185 27.0651C33.0125 24.5298 33.9167 21.5491 33.9167 18.5C33.9167 16.4755 33.5179 14.4707 32.7431 12.6003C31.9684 10.7299 30.8328 9.03035 29.4012 7.59878C27.9697 6.16721 26.2701 5.03163 24.3997 4.25687C22.5293 3.48211 20.5245 3.08334 18.5 3.08334V3.08334ZM18.5 30.8333C16.0607 30.8333 13.6762 30.11 11.648 28.7548C9.61976 27.3996 8.03897 25.4734 7.10549 23.2198C6.17201 20.9661 5.92777 18.4863 6.40365 16.0939C6.87953 13.7015 8.05417 11.5039 9.77902 9.77903C11.5039 8.05418 13.7015 6.87954 16.0939 6.40366C18.4863 5.92777 20.9661 6.17202 23.2198 7.1055C25.4734 8.03898 27.3996 9.61977 28.7548 11.648C30.11 13.6762 30.8333 16.0607 30.8333 18.5C30.8333 21.771 29.5339 24.908 27.221 27.221C24.908 29.5339 21.771 30.8333 18.5 30.8333V30.8333Z" fill="#6FCF97"/>
</svg>
