<?xml version="1.0" encoding="utf-8"?>
<!-- Generator: Adobe Illustrator 25.2.0, SVG Export Plug-In . SVG Version: 6.00 Build 0)  -->
<svg version="1.1" id="Layer_1" xmlns="http://www.w3.org/2000/svg" xmlns:xlink="http://www.w3.org/1999/xlink" x="0px" y="0px"
	 viewBox="0 0 392.5 72.8" style="enable-background:new 0 0 392.5 72.8;" xml:space="preserve">
<style type="text/css">
	.st0{display:none;fill:#FFFFFF;}
</style>
<g>
	<path class="st0" d="M9.7,9.1v23.6c0.6-1.1,1.5-1.4,2.8-1.4c10,0.1,19.9,0,29.9,0c1.8,0,2.4,0.6,2.4,2.4c0.1,3,0,3.8-3.7,3.7
		c-3.4-0.1-6.8,0-10.3,0v1.4c0,6.8,0,13.6,0,20.4c0,2.1-0.5,2.5-2.5,2.6c-0.8,0-1.6,0-2.3,0c-1.4,0-2-0.6-2-2c0-2.1,0-4.1,0-6.2
		V37.4h-3.5c-2.6,0-5.2-0.1-7.8,0c-1.3,0-2.2-0.3-2.8-1.4v26.5h132.3c-1.5-0.4-3.1-0.7-4.6-1.2c-5.4-1.9-9.1-5.5-10.5-11.1
		c-1.7-6.7,1.5-13.6,7.5-17c8.3-4.6,19.2-2.1,24.7,3.5c1.8,1.8,1.7,3.3-0.1,5.1c-0.2,0.2-0.3,0.3-0.5,0.5c-1.3,1.3-2.1,1.2-3.4-0.1
		c-2.1-2.2-4.5-3.7-7.4-4.6c-4.9-1.5-10.6,0.4-12.9,4.7c-2.8,5-0.1,11.5,5.6,13.2c5.7,1.8,10.4-0.3,14.4-4.2
		c1.5-1.4,2.3-1.6,3.4-0.7c2.3,2,2.8,3.5,1.6,5.1c-1.8,2.3-4.2,3.9-6.9,4.9c-2.2,0.8-4.6,1.3-6.9,1.9h238.4V9.1H9.7z M90.4,60.8
		c-0.1,0.9-1,0.9-1.8,0.9c-1.1,0-2.2-0.1-3.3,0c-1.3,0.1-2.2-0.4-3.1-1.4c-2.7-3-5.3-6-8-9c-0.4-0.4-1.1-0.8-1.7-0.8
		c-2.8-0.1-5.6,0-8.6,0c0,3.1,0,5.9,0,8.8c0,1.7-0.6,2.3-2.3,2.3c-0.9,0-1.7,0-2.6,0c-1.3,0-1.9-0.6-1.9-1.9c0-4.4,0-8.7,0-13.1
		c0-4.3,0-8.7,0-13c0-1.9,0.5-2.4,2.3-2.4c6.8,0,13.6-0.1,20.4,0c4,0.1,7.3,1.6,8.9,5.5c1.8,4.4,0.8,10.2-4,12.7
		c-0.7,0.4-1.5,0.6-2.4,1c1.3,1.4,2.5,2.8,3.7,4.2c1.3,1.4,2.6,2.7,3.8,4.1C90.2,59.3,90.5,60.2,90.4,60.8z M112.4,59
		c0,2.3-0.5,2.8-2.8,2.8c-0.6,0-1.2,0-1.9,0c-1.6,0-2.3-0.6-2.3-2.3c0-4.3,0-8.7,0-13c0-4.2,0-8.5,0-12.7c0-1.8,0.6-2.4,2.4-2.4
		c0.8,0,1.6,0,2.5,0c1.2,0,1.8,0.6,2,1.7c0.1,0.4,0,0.8,0,1.2C112.4,42.4,112.4,50.7,112.4,59z M201.5,61.7h-11.2c-4.3,0-8.7,0-13,0
		c-1.7,0-2.3-0.7-2.3-2.3c0-0.9,0-1.7,0-2.6c0.1-1.2,0.6-1.8,1.8-1.9c0.4,0,0.8,0,1.2,0c8.2,0,16.3,0,24.5,0c2.6,0,3,0.4,3,3
		C205.4,61.7,205.4,61.7,201.5,61.7z M205.4,47.7c0,1.7-0.6,2.3-2.3,2.3c-2.7,0-5.3,0-8,0h-17.3c-2.4,0-2.9-0.5-2.9-2.8
		c0-0.6,0-1.2,0-1.8c0-1.6,0.7-2.3,2.3-2.3c8.6,0,17.2,0,25.9,0c1.7,0,2.2,0.6,2.3,2.3C205.4,46.1,205.4,46.9,205.4,47.7z
		 M205.4,35.9c0,1.8-0.7,2.4-2.4,2.4c-3.5,0-7,0-10.5,0c-4.9,0-9.9,0-14.8,0c-2.1,0-2.7-0.6-2.7-2.7c0-0.7,0-1.4,0-2.1
		c0-1.5,0.7-2.1,2.2-2.1c4.4,0,8.7,0,13.1,0c4.3,0,8.6,0,12.9,0c1.7,0,2.3,0.6,2.3,2.3C205.5,34.4,205.5,35.1,205.4,35.9z
		 M253.2,60.9c-0.1,0.4-1,0.8-1.6,0.8c-1.1,0.1-2.3,0-3.4,0.1c-1.3,0.1-2.2-0.4-3.1-1.4c-2.5-2.9-5.1-5.7-7.7-8.6
		c-0.7-0.8-1.4-1.2-2.6-1.2c-2.6,0.1-5.2,0-8,0v1.2c0,2.5,0,4.9,0,7.4c0,2.1-0.5,2.6-2.6,2.6c-0.8,0-1.6,0-2.3,0
		c-1.1,0-1.7-0.6-1.8-1.7c0-0.3-0.1-0.7-0.1-1c0-8.3,0-16.6,0-24.9c0-0.3,0-0.7,0.1-1c0.2-1.2,0.8-1.7,2-1.7c7,0,14-0.1,20.9,0.1
		c3.8,0.1,7,1.6,8.5,5.3c1.6,3.8,1.4,7.5-1.4,10.9c-1.3,1.5-3,2.3-5.1,2.9c2,2.2,3.9,4.2,5.7,6.2c0.7,0.7,1.5,1.4,2,2.2
		C253.2,59.5,253.4,60.3,253.2,60.9z M298.6,61.8c-1,0-2,0-2.9,0c-1.1,0-1.8-0.5-2.3-1.5c-0.6-1.2-1.2-2.4-1.7-3.6
		c-0.3-0.6-0.7-0.9-1.4-0.9c-5,0-10,0-15,0c-0.7,0-1.1,0.2-1.4,0.9c-0.5,1.1-1.1,2.2-1.6,3.4c-0.5,1.2-1.3,1.8-2.6,1.7
		c-1,0-2,0-2.9,0c-1.8,0-2.5-1-1.7-2.7c2-3.9,4-7.8,5.9-11.6c2.4-4.7,4.9-9.3,7.2-14c0.8-1.6,1.8-2.3,3.6-2.1c0.3,0,0.7,0,1.1,0
		c2.7-0.6,4,0.8,5.1,3.1c3.9,7.9,8,15.7,12.1,23.6c0.1,0.3,0.3,0.6,0.4,0.8C301.3,60.7,300.7,61.7,298.6,61.8z M384,30.9
		c-0.4,0-0.8,0.1-1.3,0.1c-27,0-53.9,0-80.9,0c-1,0-1.3-0.3-1.3-1.3c0-6.4,0-12.9,0-19.3c0-0.9,0.2-1.2,1.2-1.2
		c27.1,0,54.2,0,81.2,0c0.3,0,0.6,0,1.1,0.1V30.9z"/>
	<path d="M141.9,62.4c-1.5-0.4-3.1-0.7-4.6-1.2c-5.4-1.9-9.1-5.5-10.5-11.1c-1.7-6.7,1.5-13.6,7.5-17c8.3-4.6,19.2-2.1,24.7,3.5
		c1.8,1.8,1.7,3.3-0.1,5.1c-0.2,0.2-0.3,0.3-0.5,0.5c-1.3,1.3-2.1,1.2-3.3-0.1c-2.1-2.2-4.5-3.7-7.4-4.6c-4.9-1.5-10.6,0.4-12.9,4.7
		c-2.8,5-0.1,11.5,5.6,13.2c5.7,1.8,10.4-0.3,14.4-4.2c1.5-1.4,2.3-1.6,3.4-0.7c2.3,2,2.8,3.5,1.6,5.1c-1.8,2.3-4.2,3.9-6.9,4.9
		c-2.2,0.8-4.6,1.3-6.9,1.9C144.6,62.4,143.3,62.4,141.9,62.4z"/>
	<path d="M9.7,32.7c0.6-1.1,1.5-1.4,2.8-1.4c10,0.1,19.9,0,29.9,0c1.8,0,2.4,0.6,2.4,2.4c0.1,3,0,3.8-3.7,3.7c-3.4-0.1-6.8,0-10.3,0
		c0,0.5,0,1,0,1.4c0,6.8,0,13.6,0,20.4c0,2.1-0.5,2.5-2.5,2.6c-0.8,0-1.6,0-2.3,0c-1.4,0-2-0.6-2-2c0-2.1,0-4.1,0-6.2
		c0-4.9,0-9.8,0-14.6c0-0.5,0-0.9,0-1.5c-1.3,0-2.4,0-3.5,0c-2.6,0-5.2-0.1-7.8,0c-1.3,0-2.2-0.3-2.8-1.4
		C9.7,34.9,9.7,33.8,9.7,32.7z"/>
	<path d="M252.8,58.9c-0.5-0.8-1.4-1.5-2-2.2c-1.9-2-3.7-4.1-5.7-6.2c2.1-0.5,3.8-1.3,5.1-2.9c2.7-3.3,3-7.1,1.4-10.9
		c-1.6-3.7-4.8-5.2-8.5-5.3c-7-0.2-14-0.1-20.9-0.1c-1.2,0-1.8,0.6-2,1.7c-0.1,0.3-0.1,0.7-0.1,1c0,8.3,0,16.6,0,24.9
		c0,0.3,0,0.7,0.1,1c0.1,1.1,0.7,1.7,1.8,1.7c0.8,0,1.6,0,2.3,0c2.1,0,2.6-0.5,2.6-2.6c0-2.5,0-4.9,0-7.4v-1.2c2.8,0,5.4,0.1,8,0
		c1.2,0,1.9,0.4,2.6,1.2c2.5,2.9,5.1,5.7,7.7,8.6c0.8,0.9,1.8,1.5,3.1,1.4c1.1-0.1,2.3,0.1,3.4-0.1c0.6-0.1,1.5-0.4,1.6-0.8
		C253.4,60.3,253.2,59.5,252.8,58.9z M243.4,44.3c-0.3,0.2-0.7,0.3-1.1,0.3c-5.1,0-10.1,0-15.3,0v-7.2c0.2,0,0.4-0.1,0.7-0.1
		c4.7,0,9.4,0,14,0c1.8,0,3.1,1.1,3.5,2.7C245.6,41.8,244.9,43.5,243.4,44.3z"/>
	<path d="M89.8,58.8c-1.2-1.5-2.5-2.8-3.8-4.1c-1.2-1.4-2.5-2.7-3.7-4.2c0.9-0.4,1.7-0.6,2.4-1c4.8-2.4,5.8-8.2,4-12.7
		c-1.6-3.9-4.9-5.4-8.9-5.5c-6.8-0.1-13.6,0-20.4,0c-1.8,0-2.3,0.5-2.3,2.4c0,4.3,0,8.7,0,13c0,4.4,0,8.7,0,13.1
		c0,1.4,0.6,1.9,1.9,1.9c0.9,0,1.7,0,2.6,0c1.7,0,2.3-0.6,2.3-2.3c0-2.9,0-5.8,0-8.8c3,0,5.8,0,8.6,0c0.6,0,1.3,0.3,1.7,0.8
		c2.7,2.9,5.4,5.9,8,9c0.8,0.9,1.7,1.5,3.1,1.4c1.1-0.1,2.2,0,3.3,0c0.8,0,1.7-0.1,1.8-0.9C90.5,60.2,90.2,59.3,89.8,58.8z
		 M82.2,42.3c-0.4,1.3-1.7,2.4-3,2.4c-5,0-10,0-15.1,0v-7.2c0.2,0,0.3-0.1,0.5-0.1c4.8,0,9.5,0,14.3,0C81.5,37.4,83,39.7,82.2,42.3z
		"/>
	<path d="M300.4,58.8c-0.1-0.3-0.3-0.6-0.4-0.8c-4-7.8-8.2-15.7-12.1-23.6c-1.1-2.3-2.4-3.7-5.1-3.1c-0.4,0-0.7,0-1.1,0
		c-1.7-0.2-2.8,0.5-3.6,2.1c-2.3,4.7-4.8,9.3-7.2,14c-2,3.9-4,7.7-5.9,11.6c-0.8,1.6-0.2,2.6,1.7,2.7c1,0,2,0,2.9,0
		c1.3,0.1,2.1-0.5,2.6-1.7c0.5-1.1,1.1-2.2,1.6-3.4c0.3-0.7,0.7-0.9,1.4-0.9c5,0,10,0,15,0c0.7,0,1.1,0.3,1.4,0.9
		c0.5,1.2,1.2,2.4,1.7,3.6c0.5,1,1.2,1.5,2.3,1.5c1,0,2,0,2.9,0C300.7,61.7,301.3,60.7,300.4,58.8z M277.2,49.8
		c1.8-3.7,3.6-7.3,5.5-11.3c1.9,3.9,3.7,7.5,5.5,11.3H277.2z"/>
	<path d="M105.4,46.5c0-4.2,0-8.5,0-12.7c0-1.8,0.6-2.4,2.4-2.4c0.8,0,1.6,0,2.5,0c1.2,0,1.8,0.6,2,1.7c0.1,0.4,0,0.8,0,1.2
		c0,8.3,0,16.5,0,24.8c0,2.3-0.5,2.8-2.8,2.8c-0.6,0-1.2,0-1.9,0c-1.6,0-2.3-0.6-2.3-2.3C105.4,55.2,105.4,50.8,105.4,46.5z"/>
	<path d="M190.2,31.3c4.3,0,8.6,0,12.9,0c1.7,0,2.3,0.6,2.3,2.3c0,0.7,0,1.5,0,2.2c0,1.8-0.7,2.4-2.4,2.4c-3.5,0-7,0-10.5,0
		c-5,0-9.9,0-14.9,0c-2.1,0-2.7-0.6-2.7-2.7c0-0.7,0-1.4,0-2.1c0-1.5,0.7-2.1,2.2-2.1C181.5,31.3,185.9,31.3,190.2,31.3z"/>
	<path d="M190.3,61.7c-4.3,0-8.7,0-13,0c-1.7,0-2.3-0.7-2.3-2.3c0-0.9,0-1.7,0-2.6c0.1-1.2,0.6-1.8,1.8-1.9c0.4,0,0.8,0,1.2,0
		c8.2,0,16.3,0,24.5,0c2.6,0,3,0.4,3,3c0,3.9,0,3.9-3.9,3.9C197.8,61.7,194,61.7,190.3,61.7z"/>
	<path d="M190.2,50c-4.1,0-8.2,0-12.3,0c-2.4,0-2.9-0.5-2.9-2.8c0-0.6,0-1.2,0-1.8c0-1.6,0.7-2.3,2.3-2.3c8.6,0,17.2,0,25.9,0
		c1.7,0,2.2,0.6,2.3,2.3c0,0.8,0,1.6,0,2.3c0,1.7-0.6,2.3-2.3,2.3c-2.7,0-5.3,0-8,0C193.5,50,191.9,50,190.2,50z"/>
	<path d="M383,9.2c-27.1,0-54.2,0-81.2,0c-0.9,0-1.2,0.3-1.2,1.2c0,6.4,0,12.9,0,19.3c0,1,0.3,1.3,1.3,1.3c27,0,53.9,0,80.9,0
		c0.4,0,0.8,0,1.3-0.1V9.3C383.6,9.3,383.3,9.2,383,9.2z M383.8,29.6c0,0.3-0.1,0.6-0.1,1H301c0-0.4-0.1-0.8-0.1-1.1
		c0-6.2,0-12.4,0-18.6c0-1.1,0.3-1.3,1.3-1.3c26.8,0,53.5,0,80.3,0c0.8,0,1.3,0.1,1.3,1.1C383.7,17,383.8,23.3,383.8,29.6z"/>
	<g>
		<path d="M318.3,21h-3.5v2.8c0,0.3-0.2,0.5-0.5,0.5h-0.1c-0.3,0-0.5-0.2-0.5-0.5v-7c0-0.3,0.3-0.6,0.6-0.6h4c1.4,0,2.3,0.9,2.3,2.4
			S319.8,21,318.3,21z M318.3,17.4h-3.5v2.5h3.5c1,0,1.2-0.8,1.2-1.2C319.5,18,319.4,17.4,318.3,17.4z"/>
		<path d="M332.9,20.9l1.3,2.7c0,0.1,0.1,0.2,0.1,0.3c0,0.3-0.3,0.6-0.6,0.6c-0.2,0-0.4-0.1-0.5-0.3l-1.5-3.1h-3v2.9
			c0,0.3-0.2,0.5-0.5,0.5h-0.1c-0.3,0-0.5-0.2-0.5-0.5v-7c0-0.3,0.3-0.6,0.6-0.6h4.2c1.3,0,2.5,0.7,2.5,2.3
			C334.8,20.3,333.6,20.8,332.9,20.9z M332.3,17.4h-3.6v2.4h3.6c0.9,0,1.3-0.5,1.3-1.2C333.6,17.6,332.9,17.4,332.3,17.4z"/>
		<path d="M342.7,24.4h-0.1c-0.3,0-0.5-0.2-0.5-0.5v-7.1c0-0.3,0.2-0.5,0.5-0.5h0.1c0.3,0,0.5,0.2,0.5,0.5v7.1
			C343.2,24.1,343,24.4,342.7,24.4z"/>
		<path d="M357.5,24.4h-0.2c-0.2,0-0.3-0.1-0.5-0.2l-4.7-6h0v5.7c0,0.3-0.2,0.5-0.5,0.5h-0.1c-0.3,0-0.5-0.2-0.5-0.5v-7
			c0-0.3,0.3-0.6,0.6-0.6h0.3c0.2,0,0.4,0.1,0.5,0.2l4.6,5.9h0v-5.6c0-0.3,0.2-0.5,0.5-0.5h0.1c0.3,0,0.5,0.2,0.5,0.5v7
			C358.1,24.1,357.8,24.4,357.5,24.4z"/>
		<path d="M371.1,17.4h-2.2v6.5c0,0.3-0.2,0.5-0.5,0.5h-0.1c-0.3,0-0.5-0.2-0.5-0.5v-6.5h-2.2c-0.3,0-0.6-0.3-0.6-0.6
			c0-0.3,0.3-0.6,0.6-0.6h5.6c0.3,0,0.6,0.3,0.6,0.6C371.7,17.1,371.4,17.4,371.1,17.4z"/>
	</g>
</g>
</svg>
