<svg width="37" height="37" viewBox="0 0 37 37" fill="none" xmlns="http://www.w3.org/2000/svg">
<path d="M18.5 16.9583C18.0911 16.9583 17.699 17.1208 17.4099 17.4099C17.1208 17.699 16.9583 18.0911 16.9583 18.5V24.6667C16.9583 25.0756 17.1208 25.4677 17.4099 25.7568C17.699 26.0459 18.0911 26.2083 18.5 26.2083C18.9089 26.2083 19.301 26.0459 19.5901 25.7568C19.8792 25.4677 20.0417 25.0756 20.0417 24.6667V18.5C20.0417 18.0911 19.8792 17.699 19.5901 17.4099C19.301 17.1208 18.9089 16.9583 18.5 16.9583ZM19.0858 10.915C18.7105 10.7608 18.2895 10.7608 17.9142 10.915C17.7249 10.9884 17.552 11.0984 17.4054 11.2388C17.2692 11.3886 17.1597 11.5607 17.0817 11.7475C16.9954 11.9305 16.9531 12.1311 16.9583 12.3333C16.9572 12.5362 16.9961 12.7374 17.0728 12.9252C17.1495 13.113 17.2625 13.2839 17.4054 13.4279C17.5553 13.5641 17.7273 13.6736 17.9142 13.7517C18.1477 13.8476 18.4013 13.8847 18.6525 13.8598C18.9038 13.8348 19.1451 13.7485 19.3552 13.6084C19.5653 13.4683 19.7378 13.2788 19.8575 13.0565C19.9772 12.8342 20.0404 12.5858 20.0417 12.3333C20.036 11.9252 19.8763 11.5342 19.5946 11.2388C19.448 11.0984 19.2751 10.9884 19.0858 10.915ZM18.5 3.08334C15.4509 3.08334 12.4702 3.98752 9.93496 5.68152C7.3997 7.37553 5.42371 9.78328 4.25686 12.6003C3.09001 15.4173 2.78471 18.5171 3.37956 21.5077C3.97442 24.4982 5.44271 27.2452 7.59877 29.4012C9.75483 31.5573 12.5018 33.0256 15.4924 33.6205C18.4829 34.2153 21.5827 33.91 24.3997 32.7432C27.2167 31.5763 29.6245 29.6003 31.3185 27.0651C33.0125 24.5298 33.9167 21.5491 33.9167 18.5C33.9167 16.4755 33.5179 14.4707 32.7431 12.6003C31.9684 10.7299 30.8328 9.03035 29.4012 7.59878C27.9697 6.16721 26.2701 5.03163 24.3997 4.25687C22.5293 3.48211 20.5245 3.08334 18.5 3.08334V3.08334ZM18.5 30.8333C16.0607 30.8333 13.6762 30.11 11.648 28.7548C9.61976 27.3996 8.03897 25.4734 7.10549 23.2198C6.17201 20.9661 5.92777 18.4863 6.40365 16.0939C6.87953 13.7015 8.05417 11.5039 9.77902 9.77903C11.5039 8.05418 13.7015 6.87954 16.0939 6.40366C18.4863 5.92777 20.9661 6.17202 23.2198 7.1055C25.4734 8.03898 27.3996 9.61977 28.7548 11.648C30.11 13.6762 30.8333 16.0607 30.8333 18.5C30.8333 21.771 29.5339 24.908 27.221 27.221C24.908 29.5339 21.771 30.8333 18.5 30.8333V30.8333Z" fill="#EB5757"/>
</svg>
